<?xml version="1.0" encoding="utf-8"?>
<!-- Generator: Adobe Illustrator 28.0.0, SVG Export Plug-In . SVG Version: 6.00 Build 0)  -->
<svg version="1.1" id="Capa_1" xmlns="http://www.w3.org/2000/svg" xmlns:xlink="http://www.w3.org/1999/xlink" x="0px" y="0px"
	 viewBox="0 0 389.7 363.1" style="enable-background:new 0 0 389.7 363.1;" xml:space="preserve">
<style type="text/css">
	.st0{fill:#FFFFFF;}
	.st1{fill:#C1567E;}
</style>
<path class="st0" d="M256.5,34.6l4.8,6.3l5.2,21.6c0,0,1.5,5.8,0,8.9s-2.9,8.9-2.9,8.9l-9,14.4c0,0,2.3,20.4,3.1,22.7
	s18.7,11.5,18.7,11.5s31-17.6,32-20s6.5-27.6,6.5-27.6l-4.6-9.2l-1.4-7.9l2.7-9.7l3-11.8l-6.6-4.2l3.1-5.4l8.8-9.5L308.3,9.8
	L292,9.4c0,0-16.6-0.4-19.3,0.2s-21.2,11.7-21.2,11.7"/>
<polyline class="st0" points="55.1,3.7 64.4,0.3 75,1.6 85.7,3.7 75.9,100.3 47,99.7 45.8,48.2 "/>
<g>
	<path class="st1" d="M70.3,179.8c0.8,12.2,1.6,24.5,2.4,36.7c0.4,5.5,0.7,11.1,1.1,16.6c0.5,7.5,0.9,15,1.8,22.5
		c0.4,3.3,1.8,6.6,2.6,9.9c0.9,3.5,1.5,7.1,2.3,10.7c2.6,11.4,4,23,5.6,34.6c1.8,13.7,2.3,27.5,2.7,41.3c0,0.2,0,0.3,0,0.9
		c-5.4,1.2-10.9,2.4-16.3,3.5c-2.5,0.5-5,0.6-7.4,1c-1.5,0.2-2.7-0.3-3.8-1.2c-1.5-1.3-3-2.5-4.4-3.9c-0.6-0.6-1.2-1.5-1.4-2.4
		c-1.8-6.8-3.5-13.7-5.2-20.5c-1.4-5.6-2.8-11.3-4.2-17c-1.4-5.8-2.8-11.5-4.2-17.3c-1.3-5.5-2.6-10.9-3.8-16.4
		c-1.4-6.3-2.9-12.5-4.2-18.8c-1.5-6.9-3-13.7-4.2-20.6c-1.5-8.4-2.6-16.9-3.9-25.3c-2.8-17.6-3.4-35.4-4.2-53.2
		c-0.2-3.5-0.5-7.1-1.2-10.5c-0.8-4-0.3-7.9,0.5-11.8c0.9-4.5,1.8-9,2.6-13.6c0.2-1.4,0-3-0.4-4.4c-0.7-2.3-1.7-4.6-2.7-7
		c-6,3.2-7.7,8.9-9,15.2c-0.3-0.9-0.4-1.4-0.6-1.9c-1.8-5.8-3.6-11.5-5.3-17.3C4,104.7,3,99.8,1.4,95c-2-6.2-1.6-12.4-0.5-18.6
		c0.9-5.3,2.2-10.6,3.7-15.8c1.2-4.3,2.6-8.5,4.1-12.6c1.3-3.6,2.6-7.1,4.2-10.6c2.6-5.8,5.1-11.5,8-17.1c0.8-1.6,1.4-3.2,1.4-4.9
		c-0.1-1.6,0.7-2.5,2.1-3c5.7-1.9,11.4-3.9,17.1-5.6c4.5-1.3,9.2-2.1,13.7-3.1c0.2,1.5,0.1,3,0.6,4.2c0.5,1.2,1.5,2.2,2.3,3.2
		c2-3.9,3.9-7.5,5.8-11.1c0.2,0.1,0.4,0.2,0.6,0.3c-0.3,0.6-0.7,1.3-1,1.9c-0.4,0.7-0.7,1.4-1,2.2c-0.9,2.2-1.9,4.4-2.7,6.6
		c-0.6,1.7-1.3,2-2.7,0.7c-0.8-0.9-1.5-1.9-2.6-3.2c-1.1,6.9-2.4,13.5-3.3,20.2c-1.1,8.2-2,16.4-2.7,24.6
		c-0.6,7.4-0.9,14.8-1.1,22.3c-0.2,8.1-0.2,16.1-0.3,24.2c0,0.3,0.1,0.5,0.1,0.8H60v-5.6c-0.1-13.6-0.3-27.2-0.1-40.9
		c0-3.9,1-7.9,1.7-11.8c0.2-1.4,6.8-38.1,7.5-39.4c-0.5,2.8-7.2,41.1-7.4,43.9c-0.5,6.9-0.8,13.7-0.9,20.6c-0.2,10.9,0,21.8,0,32.9
		H76c0-1-0.1-1.9-0.1-2.9c-0.1-6-0.5-12-0.3-17.9c0.3-13.1,0.2-26.2,2.2-39.1c1.2-7.4,2.7-14.8,4.1-22.1c0.4-2.1,1.2-4.2,1.9-6.7
		c-1.6,0.8-2.8,1.5-3.9,2c-1.4,0.6-2.1,0.3-2.4-1.2c-0.9-3.6-1.7-7.2-2.3-10.8c1.3,3.7,2.6,7.3,3.9,11.1c1.7-0.9,3.2-1.7,4.7-2.6
		c0.4-0.2,0.6-0.9,0.7-1.4c0.5-1.6,0.9-3.3,1.4-5.1c1.8,0.4,3.6,0.8,5.3,1.3c9.3,2.5,18.3,5.6,26.8,10.2c1.4,0.7,2.7,1.5,4,2.3
		c1.5,1,1.7,2.1,0.9,3.7c-0.2,0.3-0.3,0.7-0.2,1c1.3,7,2.8,14,4.1,21c1.3,6.7,2.6,13.4,3.8,20c1.4,7.6,2.6,15.3,4.2,22.9
		c2.2,9.9,3.2,20,4.1,30.1c1.1,11.9,1.9,23.9,2.9,35.8c0.1,1.1-0.3,1.8-1.3,2.3c-4.1,2.1-8.4,3.1-13,2.7c-3-0.3-6-0.8-9-1.1
		c-1-0.1-1.3-0.6-1.4-1.6c-0.6-5.5-1.2-11-1.9-16.5c-1.1-8.9-2.3-17.9-3.4-26.8c-0.3-2.2-0.5-4.4-0.8-6.6
		c-0.8-5.7-2.1-11.3-4.1-16.6c-1.3-3.3-2.5-6.7-3.7-9.8c-1.7,5.8-0.3,11.7,0.8,17.5c0.5,2.7,1.1,5.4,1.7,8.1
		c1.4,6.6,3,13.2,4.3,19.8c0.4,2.3,0,4.8,0.4,7.1c1.3,8.5,2.7,16.9,4.1,25.4c1.3,7.6,2.6,15.2,3.8,22.8c1.4,8.2,2.8,16.5,4.2,24.7
		c1.4,7.9,2.7,15.9,4.2,23.8c1.2,6.8,2.5,13.5,3.8,20.2c1.3,6.6,2.9,13.1,4.2,19.6c1.4,7.2,2.8,14.5,4.1,21.8
		c1.4,7.4,2.6,14.9,3.9,22.3c1.4,8.2,2.8,16.4,4.2,24.6c0.5,3,1,6,1.7,9c0.3,1.3-0.3,2.1-1,2.8c-2.9,3-6,5.9-9.5,8.2
		c-2,1.4-4.1,2-6.4,1.9c-4.7-0.2-9.3-0.9-13.8-2.4c-1-0.3-1.5-0.8-1.8-1.9c-1.6-6.1-3.3-12.1-4.9-18.1l-4.1-14.9
		c-1.3-4.7-2.6-9.5-3.9-14.2c-1.4-5-2.7-10-4.1-15c-1.4-5.3-2.9-10.6-4.3-16c-1.2-4.7-2.5-9.4-3.7-14.1c-1.5-5.7-2.9-11.4-4.4-17.1
		c-1.4-5.4-2.7-10.8-4-16.2c-1.4-5.8-2.9-11.5-4.3-17.3c-1.2-4.9-2.4-9.8-3.7-14.6C73.3,190.6,71.8,185.1,70.3,179.8L70.3,179.8
		L70.3,179.8z M99.5,49.3c0.1-0.1,0.2-0.3,0.3-0.4c-2.1-1.6-4.1-3.2-6.2-4.7C93.4,44,93.1,44,92.8,44c-0.9,0.2-3.5,3.2-3.7,4.5
		C92.6,48.8,96.1,49,99.5,49.3L99.5,49.3L99.5,49.3z"/>
	<path class="st1" d="M298.5,57.4c-1.2,2.2,0.4,4,1,6c-1.3-0.7-2.3-1.5-3.5-2c-0.7-0.3-1.6-0.6-2.4-0.5c-0.6,0.1-1.5,0.8-1.5,1.2
		c-0.1,0.6,0.4,1.6,1,1.9c1.4,0.8,3,1.3,4.5,1.9c0.5,0.2,1,0.3,1.4,0.4c-1.9,1.2-3.8,2.4-5.7,3.5c-1.1,0.7-1.6,1.6-1,2.7
		c0.7,1.2,1.9,1.1,2.8,0.5c1.6-1,3.1-2.3,4.6-3.4c0.3-0.2,0.5-0.6,0.7-0.9c0.1,0.1,0.2,0.2,0.4,0.2c-0.4,1-0.8,2-1.1,3
		c-0.4,1.3-0.8,2.7-1.1,4c-0.1,0.4,0.1,1.2,0.4,1.3c0.4,0.2,1.2,0.1,1.4-0.3c0.8-1,1.5-2.1,2-3.3c0.3-0.5,0.3-1.2,0.4-1.9
		c1.3,1.1,2.4,2.2,3.7,3c0.6,0.4,1.5,0.4,2.2,0.5c0-0.8,0.3-1.7,0-2.4c-0.6-1.3-1.6-2.5-2.5-3.9c1.2-0.4,2.4-0.9,4-1.5
		c0,1.6-0.2,3.1,0.1,4.4c0.2,1,0.9,1.9,1.5,3c-0.9,0.7-2.5,1.2-1.7,3.2c0.8,2.1,2.4,1.5,3.9,1c0.3,0.8,0.6,1.4,0.8,2
		C317,87,319,93,321.2,98.8c2.3,6.1,3.2,12.5,4.3,18.9c2.4,14.6,1.6,29.3,0.6,43.9c-0.9,13.8-2.4,27.6-3.4,41.5
		c-0.5,6.7-1.2,13.5,0.5,20.1c1.7,6.4,4.1,12.7,6.3,19c0.6,1.6,1.4,3.2,2,4.9c2,5,3.9,10,5.8,14.9c1.3,3.4,2.8,6.7,4.1,10.1
		c1.3,3.1,2.6,6.2,3.9,9.3c1.4,3.3,2.8,6.6,4.1,9.9c1.4,3.3,2.8,6.7,4.2,10c1.3,3,2.6,6,3.8,9c1.4,3.2,2.7,6.5,4.1,9.7
		c0.9,2,1.8,4.1,2.8,6.1c0.2,0.5,0.8,1,1.4,1.1c6,1.7,11.6,4.1,17,7.4c2,1.2,3.8,2.7,5.6,4.3c1.6,1.4,1.8,2.9,0.2,4.3
		c-1.8,1.6-3.9,3.1-6,4.1c-10.5,5.2-21.9,6.8-33.4,8.1c-7.9,0.9-15.8,1.7-23.6,2.9c-4.9,0.8-9.6,2.3-14.5,3.3
		c-7.4,1.5-14.8,2.3-22.2,0.5c-4.2-1-7.8-3.1-11-6.1c-3.3-3-3.5-7.1-4.5-10.9c-0.8-3-1.3-6.1-2-9.5c-14.5-1.2-29.3-4.2-44.2,1.1
		c0.3-2.3,0.6-4.2,0.9-6.1c0.8-6.9,1.7-13.7,2.4-20.5c0.4-3.1,0.7-6.2,2.2-9.1c1.3-2.5,1.9-5.3,2.9-8c1.6-4.3,3.1-8.6,4.7-12.9
		c1.2-3.3,2.5-6.7,3.7-10c1.5-3.9,2.9-7.9,4.4-11.8c1.1-3.1,2.3-6.2,3.4-9.3c1.5-4.2,3-8.4,4.5-12.6c1.3-3.6,2.6-7.2,3.9-10.8
		c1.1-3,2.1-6,3.2-9c0.2-0.6,0.4-1.3,0.3-1.9c-0.4-15-0.8-30-1.2-45.1c0-0.1-0.1-0.3-0.1-0.6c-0.7,1-1.5,1.9-2,2.8
		c-1.8,3-3.5,6-5.2,9c-2,3.4-3.9,6.9-5.9,10.3c-2.6,4.5-5.2,9-7.9,13.5c-3,4.9-6.2,9.8-9.3,14.6c-0.2,0.3-0.3,0.6-0.5,0.9
		c-2.8,5.6-4.9,11.5-6.6,17.5c-2.2,7.9-3,16.1-4.5,24.2c-2.2,12.7-2.9,25.5-3.8,38.3c-0.3,4.3-2.1,8.1-4.6,11.5
		c-0.1,0.2-0.2,0.4-0.3,0.5c-2.1,4.3-4.3,8.6-6.3,13c-1.3,2.8-2.7,5.6-3.5,8.6c-1,3.9-1.5,8-2.2,12.2c-0.2,0-0.9,0-1.5,0
		c-10.5-0.9-20.9-2.4-31-5.2c-4.2-1.2-8.4-2.8-12.3-4.8c-3.8-2-3.7-4.8,0.2-7.8c4.7-3.6,10.2-5.1,15.9-6.4c1-0.2,1.6-0.7,2.2-1.6
		c3.3-5.9,6.8-11.7,10.1-17.6c2.7-4.7,5.3-9.5,7.9-14.3c2.8-5.2,5.6-10.5,8.4-15.8c2.6-5,5.3-10,7.9-15c2.8-5.3,5.6-10.7,8.4-16
		c2.7-5,5.3-10.1,8-15.1c2.3-4.4,4.5-8.8,7.2-12.9c3.1-4.7,4-10,4.5-15.4c1.4-15.3,2.6-30.6,3.9-45.9c0.3-3.2,0.5-6.4,1-9.6
		c1.1-6.4,2.1-12.9,3.6-19.3c1.1-4.6,2.8-9.1,4.3-13.6c1.1-3,2.3-6,3.6-8.9c1.2-2.7,2.5-5.4,3.8-8.1c0.2-0.3,0.8-0.7,1.2-0.7
		c2.1,0.2,4.3,0.4,6.5,0.6c-2.2,1-4.4,2-6.5,3.1c-0.3,0.1-0.6,0.3-0.8,0.5c-0.9,0.8-0.7,1.5,0.4,1.8c2,0.5,3.5-0.7,5.1-1.4
		c0.4-0.2,0.7-0.4,1.1-0.7c0,1.7-0.1,3.2,0.1,4.8c0.1,0.6,0.7,1.2,1.1,1.8c0.7-0.5,1.7-0.9,2-1.5c0.6-1.4,0.8-3,1.1-4.6
		c1.5,0.6,2.9,1.2,4.4,1.7c0.5,0.2,1,0.4,1.4,0.3c0.8-0.2,1.5-0.6,2.2-0.8c-0.4-0.7-0.5-1.7-1.1-2.1c-1.4-0.9-2.9-1.5-4.6-2.3
		c1.6-0.5,3.1-0.8,4.5-1.5c0.8-0.4,1.4-1.2,2.1-1.9c-0.9-0.2-1.8-0.4-2.6-0.4c-1.1,0.1-2.1,0.5-3.3,0.7c0.5-1.5,1.1-2.9,1.4-4.3
		c0.1-0.7-0.3-1.6-0.5-2.4c-0.8,0.4-1.9,0.5-2.4,1.2c-0.8,0.9-1.1,2.2-1.8,3.4c-0.3-1.4-0.4-2.6-0.8-3.8c-0.2-0.6-0.5-1.4-1-1.7
		c-0.6-0.4-1.7-0.7-2.2-0.4c-0.5,0.2-0.9,1.4-0.8,2c0.5,1.9,1.2,3.7,1.9,5.6c-1.7-0.5-3.6-1.1-5.7-1.7c1-1.8,2-3.6,3-5.3
		c0.9-1.6,1.7-3.1,2.5-4.7c0.7-1.3,0.7-1.3,2.6-1.1c-0.7,0.4-1.2,0.7-1.6,1c-0.6,0.6-1.6,1.3-0.8,2.3c0.7,0.9,1.8,1,2.7,0.4
		c0.6-0.4,1-0.9,1.5-1.3c0.7,0.7,1.4,1.6,2.2,1.9c0.9,0.3,2.2,0.2,2.9-0.4c0.9-0.6,0.1-1.5-0.5-2.1c-0.6-0.7-1.1-1.4-1.7-2.3
		c1.1-0.4,2.2-0.6,3.2-1.1c0.4-0.2,1-0.9,0.9-1.1c-0.2-0.4-0.7-1-1.2-1.1c-0.9-0.2-1.9-0.1-2.8-0.1c-0.1-2.2-1.1-3.3-2.8-3.3
		c0.2-1.7,0.3-3.5,0.5-5.2c1.5-0.6,3.7-0.3,3.5-2.8c-0.1-1.7-1.5-1.9-2.4-2c-0.1-1.3,0.3-2.9-0.3-3.5c-0.6-0.6-2.2-0.3-3.6-0.3
		c-0.3-0.8-0.8-2.1-1.4-3.6c1.9,0.7,3.1,0,4.3-2.1c0.4,0.7,0.6,1.3,1,1.7c0.5,0.5,1.1,1.1,1.6,1.1c0.9,0,1.9-0.3,2.5-0.9
		c0.2-0.2-0.3-1.5-0.7-2.2c-0.5-0.6-1.2-1-1.9-1.5c0.1-0.2,0.2-0.4,0.3-0.5c0.7-0.2,1.5-0.2,2.2-0.6c0.7-0.4,1.3-1.1,1.9-1.6
		c-0.8-0.3-1.5-0.8-2.3-1c-0.5-0.1-1.2,0.1-1.8,0.1c-0.3-1.2,0.8-3.3-1.6-3.4c-1.7-0.1-2.2,0.8-2.4,3.6c-1.5-0.7-3.1-1.5-4.4,0.3
		c-1.2-2.8-1.3-5-0.1-5.7c0.9,1.4,2.1,2.2,3.7,1.5c1.5-0.5,1.8-1.9,1.7-3.3c1.5-0.5,3.5-0.3,3.5-2.6c0-2-1.6-2-2.8-2.2
		c0.3-1.3,0.5-2.5,0.8-4c0.9-0.5,2.2-1.1,3.9-1.9c-0.2,1-0.5,1.8-0.5,2.5c0,1,0,2,0.2,3.1c0.2,1.2,1,1.5,2,1
		c0.9,1.3,1.8,2.6,2.8,4.1c-1.4,0-2.6,0-3.9,0c-0.6,0-1.2,0-1.7,0.2c-0.5,0.2-1.3,0.8-1.3,1.1c0.1,0.5,0.6,1.3,1.2,1.5
		c1.2,0.4,2.6,0.5,3.9,0.8c0.5,0.1,1,0.1,1.8,0.2c-0.6,1-1.1,1.7-1.4,2.6c-0.4,1-0.7,2.2-0.8,3.3c0,0.5,0.3,1.4,0.7,1.5
		c0.5,0.2,1.5,0,1.9-0.3c0.8-0.9,1.3-2.1,1.9-3.1c0.4-0.6,0.7-1.3,1-2c0.8,1.8,1.4,3.5,2.3,5c0.3,0.5,1.1,0.8,1.7,1.2
		c0.2-0.6,0.6-1.3,0.5-1.9c-0.3-1.3-0.9-2.5-1.4-3.9c1.6,0.5,3,1,4.5,1.3c1,0.2,2.5,0.7,2.9-0.8c0.4-1.4-1-1.8-2-2.3
		c-0.9-0.4-1.9-0.7-2.9-1.3c0.8-0.2,1.6-0.2,2.4-0.5c1-0.3,2.1-0.7,3-1.3c0.5-0.3,1-1.5,0.9-1.6c-0.6-0.6-1.5-1.4-2.1-1.3
		c-1.5,0.2-3,0.9-4.5,1.5c-0.7,0.2-1.3,0.7-2,1c0.6-2.4,1.3-4.6,1.9-6.9c1.4,1.1,2.7,0.1,3.7-0.5c1,1,1.7,2.2,2.8,2.6
		c1.8,0.7,2.8-0.4,2.2-2.3c-0.3-0.9-0.8-1.8-1.2-2.7c1.2-0.1,2.3-0.2,3.3-0.5c0.5-0.1,0.8-0.7,1.2-1c-0.4-0.4-0.7-1-1.2-1.2
		c-0.8-0.3-1.7-0.4-2.7-0.6c0.2-0.5,0.4-0.9,0.5-1.3c1.8,0.3,3.5,0.5,5.3,0.8c-0.5,1.7-1.1,3.3-1.6,4.9c-0.3,1-0.5,2.2,0.7,2.4
		c0.8,0.2,2-0.5,2.5-1.1c0.8-1,1.1-2.4,1.7-3.6c0.1-0.2,0.2-0.3,0.3-0.4c0.9,1.6,1.7,3.3,2.6,4.9c0.3,0.4,0.9,0.6,1.3,1
		c0.2-0.5,0.5-1.1,0.5-1.5c-0.2-1.3-0.6-2.6-1-4c1,0.3,2,0.6,3,0.9c0.6,0.2,1.1,0.4,1.7,0.4c1,0.1,2.2,0.4,2.6-0.8
		c0.4-1.3-0.8-1.7-1.7-2.1c-1.1-0.5-2.2-0.9-3.5-1.5c1.4-0.3,2.6-0.5,3.8-0.9c0.6-0.2,1.4-0.4,1.8-0.9c0.4-0.5,0.8-1.4,0.6-1.9
		c-0.2-0.5-1.2-1.3-1.6-1.1c-1.9,0.5-3.8,1.2-5.7,1.9c-0.3,0.1-0.6,0.3-1.1,0.6c0.4-1.7,0.9-3.1,1.2-4.5c0.2-0.7,0.4-1.6,0.1-2.2
		c-0.3-0.8-0.9-1.7-1.5-1.9c-1-0.3-2.1,0.3-2.3,1.5c-0.3,2.2-0.5,4.5-0.7,6.7c-0.2-0.4-0.4-0.9-0.7-1.4c-1-1.6-2-3.3-3-4.8
		c-0.3-0.4-0.9-0.6-1.4-0.9c-0.3,0.6-0.9,1.3-0.7,1.8c0.4,1.4,1.1,2.6,1.8,3.9c0.1,0.2,0.3,0.4,0.6,0.9c-0.7,0-1.2,0-1.7,0
		c-2.1,0.3-4.4,0.3-6.4,1c-0.9,0.3-1.5,1.7-2.2,2.5c-0.9-0.2-2-0.7-3.2-0.8c-0.5,0-1.1,0.8-1.4,1.4c-0.6,1.2,0,1.9,2.9,3
		c-0.6,0.4-1.2,0.6-1.7,1c-0.5,0.3-0.8,0.8-1.3,1.2c-0.1-0.1-0.5-0.4-0.5-0.4c0.8-1.7-0.5-2.4-1.5-3.1c-1.2-0.9-2.6-1.5-3.9-2.2
		c1.7-0.5,3.4-1,5.1-1.6c0.4-0.1,0.8-0.3,1.2-0.5c0.3-0.2,0.6-0.7,0.5-0.9c-0.1-0.3-0.6-0.7-0.9-0.7c-1.1,0-2.2,0.2-3.3,0.3
		c-0.6,0.1-1.2,0.2-1.9,0.4c0.6-1.4,1.4-2.6,1.8-3.9c0.3-1,0.9-2.3-0.5-2.8c-1.2-0.5-2,0.4-2.6,1.4c-0.5,0.9-1,1.9-1.5,2.9
		c-0.4-1.5-0.7-2.9-1.2-4.3c-0.6-1.7-1.6-2.3-2.7-1.7c-1.3,0.7-1.8,1.6-0.9,3.3c0.7,1.4,1.1,3,1.8,4.6c-1.6-0.6-3.1-1.2-4.6-1.6
		c-0.9-0.3-1.9-0.5-2.8-0.3c-0.7,0.1-1.6,0.9-1.7,1.5c-0.1,0.5,0.6,1.6,1.1,1.8c1.7,0.5,3.5,0.8,5.3,1.1c0.6,0.1,1.3,0,2,0.3
		c-1.8,0.7-3.5,1.3-5.3,2c-0.8,0.3-1.5,0.7-2.2,1.2c-0.3,0.2-0.4,0.7-0.6,1.1c-0.1,0.4-0.2,0.8-0.2,1.2c-0.5-0.2-1-0.3-1.4-0.6
		c-0.8-0.9-1.7-1.2-2.9-0.7c-1.6,0.7-1.7,1.6-0.8,3.7c-0.9,0-2-0.2-2.7,0.2c-0.7,0.4-1,1.5-1.6,2.4c-1.3-0.6-2.8-1.4-4.3-2.2
		c-2.8-1.5-5.7-2.9-8.5-4.5c-0.4-0.2-0.9-0.8-0.9-1.1c0.5-3.9,1.4-7.7,4.2-10.7c3.1-3.3,7.1-4.4,11.4-4.7c3.9-0.3,7.9-0.8,11.8-1.2
		c2-0.2,4-0.5,4.3-3.2c6,0.8,11.8,0.9,17.6-0.6c1.5,3,4.4,2.8,7,3c0,0.2,0,0.4-0.1,0.4c-1,0.6-2,1.3-1.2,2.5
		c0.8,1.2,1.8,0.2,2.6-0.2c0.3-0.2,0.6-0.3,1.1-0.6c0.2,0.8,0.2,1.4,0.5,2.1c0.1,0.4,0.5,0.6,0.8,0.9c0.3-0.3,0.7-0.6,0.8-1
		c0.2-0.4,0.1-0.9,0.2-1.3c0.9-0.2,1.8-0.2,2.5-0.6c0.3-0.2,0-1.2,0-1.9c5.8-0.1,11,2.7,13.1,8.5c0,0.1,0.1,0.2,0.1,0.3
		c1.3,3.7,1,4.5-2,7.3c-1.2,1.1-2.2,2.6-3.3,4c-0.3,0.4-0.8,0.7-1.2,0.7c-2.1-0.1-2.7,0.5-2.1,2.6c0.1,0.2,0.1,0.4,0.2,0.6
		c-1,0.9-2.9,1.2-2.3,3.2c0.5,1.5,1.8,2.1,3.4,2.3c0.2,1.4,0,3.1,2.2,3.5c-0.5,1.9-0.9,3.7-1.4,5.8c-1.4-2.4-3.1-0.9-4.8-0.7
		c0.2-0.7,0.5-1.3,0.5-1.9c0-0.6-0.3-1.8-0.5-1.8c-0.7,0-1.6,0.1-2.1,0.5c-0.6,0.5-0.9,1.4-1.2,2.1c-0.9-0.2-2-0.6-3.1-0.5
		c-0.7,0.1-1.3,1-2,1.5c0.5,0.6,0.9,1.4,1.6,1.8c0.8,0.5,1.8,0.7,2.7,1.1c-0.7,0.8-1.4,1.6-1.9,2.4c-0.2,0.4-0.4,1.3-0.2,1.4
		c0.4,0.3,1.1,0.4,1.6,0.3c0.9-0.3,1.7-0.8,2.5-1.3c1.4,2.4,2.1,2.8,3.5,2c1.1-0.7,1-2.1-0.2-4c1-0.2,2-0.5,3.3-0.8
		c-0.4,1.3-0.8,2.5-1.1,3.7c-0.1,0.3-0.3,0.7-0.2,1.1c0.2,1.5,0,2.7-1.5,3.5c-1.1,0.6-1.1,1.6-0.2,2.7c1.3,1.5,1.1,1.9-0.9,2.5
		c-1.2,0.4-2.5,0.9-3.5,1.3c0.7-1.7,1.5-3.3,2.1-5c0.2-0.5-0.1-1.3-0.2-1.9c-0.5,0.2-1.1,0.4-1.5,0.8c-0.9,1.1-1.6,2.3-2.4,3.3
		c-0.9-1.4-1.8-2.9-2.8-4.2c-0.4-0.5-1.4-0.6-2-0.8c0.9-1.2,0.7-2.5,0-3.8c1.5-0.6,2.5-1.5,2-3.2c-0.7-2.1-2.5-1-3.9-1.3
		c0.4-2.5,0.2-3.3-1.2-3.8c-1.5-0.5-2.6,0.2-3.4,1.9c-1.3-0.2-2.6-0.7-3.4-0.3c-0.6,0.3-0.5,2-0.8,3.3c-0.7,0.4-1.8,1.1-1.5,2.7
		c0.3,2,1.9,2.3,3.5,2.4c0.2,1.5,0,3.2,2,3.4c1.8,0.3,2.7-0.8,2.9-2.2c1.4,0.2,2.7,0.4,3.9,0.6L298.5,57.4L298.5,57.4z M287.5,71.1
		c1.8-0.7,3.7-1.3,5.5-2.1c1.2-0.6,1-2.1-0.2-2.6c-0.7-0.3-1.6-0.4-2.3-0.2c-1.5,0.5-3,1.3-4.5,2c-0.3,0.2-0.7,0.3-1.3,0.6
		c1.4-2.4,1.9-4.7,1.8-7c-0.1-1-0.5-1.7-1.6-1.8c-1.1-0.1-1.8,0.4-2.1,1.3c-0.3,0.9-0.4,1.8-0.5,2.7c-0.1,1.4,0,2.7,0,4.5
		c-0.9-1.4-1.5-2.6-2.2-3.7c-0.6-1-1.2-2.1-1.9-3c-0.3-0.4-1.2-0.8-1.6-0.7c-0.4,0.2-0.8,1.1-0.7,1.6c0.3,1.1,0.8,2.1,1.3,3.1
		c0.3,0.6,0.8,1.1,1.3,1.8c-2,0.1-3.7,0.1-5.4,0.3c-0.6,0.1-1.2,0.8-1.8,1.3c0.6,0.5,1,1.2,1.7,1.4c1.7,0.5,3.4,0.7,5.2,1
		c-0.1,0.3-0.2,0.6-0.4,0.9c-0.5,1.3-1.2,2.5-1.6,3.8c-0.3,0.9-0.6,2.2,0.6,2.7c1.3,0.5,2.1-0.3,2.7-1.4c0.7-1.3,1.4-2.6,2.1-4
		c0.1,0.2,0.3,0.4,0.4,0.7c0.7,1.5,1.3,3.1,2,4.5c0.2,0.4,1,0.5,1.6,0.8c0.2-0.5,0.5-1.1,0.5-1.6c-0.3-1.4-0.8-2.7-1.3-4.2
		c0.4,0.2,0.9,0.3,1.4,0.5c1.3,0.4,2.6,0.8,4,1c0.6,0.1,1.2-0.4,1.8-0.7c-0.3-0.6-0.4-1.5-0.9-1.8C290,72.1,288.6,71.6,287.5,71.1
		L287.5,71.1L287.5,71.1z M287.2,19.3l0.3-0.4c1.5,2.9,3.8,3.2,5.5,0.5c0.6-0.9,1.2-1,2-1.2c0.9-0.2,2-1,2.4-1.9
		c0.5-1.1-0.8-1.7-1.6-2.2c-0.3-0.2-0.6-0.3-1-0.4c0.2,0,0.3,0,0.5,0c0.2-1.2,0.9-2.8,0.5-3.3c-0.7-0.7-2.3-0.6-3.8-0.9
		c-0.7-1.6-1.4-2.1-3-1.8c-2,0.4-1.5,2.1-1.7,3.5c-2.7-0.8-3.7-0.6-4.2,1c-0.2,0.7,0,1.6,0.3,2.2c0.4,0.6,1.3,0.8,2,1.2
		c-0.9,0.8-2.3,1.6-1.4,2.8C284.7,19,286.1,19,287.2,19.3L287.2,19.3L287.2,19.3z M298.9,83.7c1.4-0.5,2.4-1.4,2-2.9
		c-0.5-2.4-2.6-1.2-4.1-1.5c1.1-1.8,0.9-2.7-0.6-3.5c-0.5-0.3-1.4-0.5-1.8-0.3c-0.9,0.5-1.7,1.4-2.2,1.8c-1.2-0.1-2.5-0.6-3.4-0.1
		c-0.5,0.3-0.4,1.9-0.6,3.2c-1,0.4-1.9,1.3-1.5,2.9c0.4,1.8,1.9,2.1,3.5,2.2c0.1,1.6,0,3.2,2,3.5c1.9,0.2,2.6-1.1,2.9-2.8
		c1.2,1.1,2.5,1.8,3.8,0.8C300.2,86.2,299.3,84.9,298.9,83.7L298.9,83.7L298.9,83.7z M282,53.7c1.4-2.7,1.3-3.8-0.4-4.5
		c-0.5-0.2-1.4-0.4-1.6-0.1c-0.7,0.8-1.1,1.9-1.7,2.9c-1-0.7-1.5-2.9-3.4-1.9c-1.1,0.6-0.8,1.8,0.7,3.9c-0.7,0.5-1.6,0.9-2.1,1.6
		c-0.4,0.5-0.8,1.6-0.6,2.2c0.5,1,1.5,1.3,2.6,0.7c0.9-0.5,1.9-0.9,2.9-1.4c0.2,1,0.3,1.9,0.6,2.7c0.2,0.5,1,1.3,1.1,1.2
		c0.6-0.3,1.2-0.8,1.5-1.4c0.3-0.6,0.2-1.4,0.3-2.2c2.8,0.3,3.7,0,3.8-1.2C285.8,54.8,284.7,54.1,282,53.7L282,53.7L282,53.7z
		 M276,84c-0.7,0.5-1.6,0.8-2,1.4c-0.4,0.8-0.5,1.8-0.3,2.6c0.1,0.3,1.5,0.5,2.2,0.3c1-0.2,1.9-0.9,2.9-1.3c0.2,1,0.3,2,0.6,2.8
		c0.2,0.5,0.8,1.1,1.3,1.1c0.5,0,1.1-0.6,1.3-1.1c0.3-0.8,0.2-1.7,0.3-2.5c1.3,0.1,3.1,1.1,3.6-0.8c0.7-2.8-2.1-2.2-3.5-3
		c1.5-2.2,1.4-3.6-0.3-4.2c-0.7-0.3-1.9-0.1-2.4,0.3c-0.6,0.5-0.7,1.6-1,2.6c-0.9-1.2-1.5-3.1-3.4-2.2C274.1,80.6,274.4,82,276,84
		L276,84L276,84z M301.3,35.7c-1.4-0.4-1.5-3.8-3.8-1.7c-2,1.8,0.8,2.4,1,3.8c-0.5,0.2-1.1,0.4-1.6,0.7c-1.2,0.6-1.8,2.1-1.2,3.1
		c0.7,1.2,1.8,0.9,2.8,0.4c0.8-0.4,1.6-0.9,2.4-1.4c0.4,1.1,0.7,2.1,1.1,3.2c0.2,0.4,0.7,1,0.9,0.9c0.4-0.1,1-0.5,1.1-0.9
		c0.3-0.8,0.3-1.8,0.5-2.6c3.3,0,3.7-0.1,3.7-1.3c0-0.5-0.1-1.1-0.4-1.3c-1-0.5-2-0.9-3-1.3c1.6-2.9,1.7-3-0.1-4
		C301.7,31.3,302.2,34.6,301.3,35.7L301.3,35.7L301.3,35.7z M279.4,102.9c0.7,1,1.2,1.9,1.8,2.7c0.5-0.8,1-1.6,1.4-2
		c0.9-0.5,2-0.8,2.2-1.3c0.4-1.6-1.1-1.6-2.1-2c0.9-1.8,0.8-2.7-0.4-3.1c-1.8-0.7-2,0.8-2.3,2c-0.9-0.4-1-2.3-2.5-1.2
		c-1.9,1.3,0.8,1.7,0.5,2.8c-1.1,0.4-2.7,1.1-1.9,2.5C277.1,105.3,278.5,103,279.4,102.9L279.4,102.9L279.4,102.9z M262.4,112.6
		c0,0-0.5,0.2-0.7,0.5c-0.3,0.7-0.4,1.4-0.5,2.2c0.6,0,1.4,0.3,1.9,0c1.5-1,2.1-0.7,2.3,1.1c0,0.3,0.6,0.7,0.9,1
		c0.3-0.3,0.7-0.7,0.8-1.1c0.2-0.5,0.1-1,0.2-1.6c0.1,0.1,0.2,0.3,0.2,0.4c0.8-0.3,2.2-0.5,2.4-1c0.6-2-1.6-1.4-2.4-2.2
		c0.9-1.7,0.8-2.6-0.4-3c-1.9-0.6-1.5,1.2-2,2.1c-1.1-0.1-1.2-2.6-2.7-1.3C261.9,110.1,262.4,111.4,262.4,112.6L262.4,112.6
		L262.4,112.6z"/>
	<path class="st1" d="M276.4,30.8c0.4-1,0.7-2,1-2.9c1.9,0.9,3.6,1.6,4.9,2.2c-0.2,2.7-0.5,5.4-0.7,7.9
		C279.6,36.1,279.4,32.6,276.4,30.8L276.4,30.8L276.4,30.8z"/>
	<path class="st1" d="M263.8,50.5c-0.2-0.9-0.3-1.5-0.5-2.3c1,0.1,2,0.2,3.2,0.3C265.5,49.2,264.8,49.8,263.8,50.5L263.8,50.5z"/>
	<path class="st0" d="M99.5,49.3c-3.4-0.3-6.9-0.5-10.4-0.8c0.2-1.3,2.8-4.3,3.7-4.5c0.2,0,0.6,0,0.7,0.1c2.1,1.6,4.1,3.2,6.2,4.7
		C99.7,49,99.6,49.2,99.5,49.3L99.5,49.3L99.5,49.3z"/>
	<path class="st0" d="M287.5,71.1c1.1,0.5,2.5,0.9,3.7,1.7c0.5,0.3,0.6,1.2,0.9,1.8c-0.6,0.2-1.2,0.8-1.8,0.7c-1.4-0.2-2.7-0.6-4-1
		c-0.5-0.1-1-0.3-1.4-0.5c0.5,1.5,1,2.8,1.3,4.2c0.1,0.5-0.3,1.1-0.5,1.6c-0.5-0.2-1.4-0.3-1.6-0.8c-0.8-1.4-1.4-3-2-4.5
		c-0.1-0.2-0.3-0.4-0.4-0.7c-0.7,1.4-1.4,2.7-2.1,4c-0.6,1.1-1.5,1.9-2.7,1.4c-1.3-0.5-0.9-1.8-0.6-2.7c0.4-1.3,1.1-2.5,1.6-3.8
		c0.1-0.3,0.2-0.6,0.4-0.9c-1.8-0.3-3.5-0.6-5.2-1c-0.6-0.2-1.1-0.9-1.7-1.4c0.6-0.4,1.1-1.2,1.8-1.3c1.7-0.2,3.4-0.2,5.4-0.3
		c-0.5-0.7-1-1.2-1.3-1.8c-0.5-1-1.1-2-1.3-3.1c-0.1-0.5,0.3-1.4,0.7-1.6c0.4-0.2,1.2,0.2,1.6,0.7c0.7,0.9,1.3,2,1.9,3
		c0.7,1.1,1.3,2.2,2.2,3.7c0-1.7-0.1-3.1,0-4.5c0.1-0.9,0.2-1.8,0.5-2.7c0.3-1,1-1.5,2.1-1.3c1.1,0.1,1.6,0.8,1.6,1.8
		c0.2,2.4-0.4,4.7-1.8,7.1c0.6-0.3,1-0.4,1.3-0.6c1.5-0.7,3-1.4,4.5-2c0.7-0.2,1.6-0.1,2.3,0.2c1.2,0.4,1.4,2,0.2,2.6
		C291.3,69.9,289.3,70.4,287.5,71.1L287.5,71.1L287.5,71.1z"/>
	<path class="st0" d="M287.2,19.3c-1-0.3-2.5-0.4-3.1-1.1c-0.9-1.2,0.5-2,1.4-2.8c-0.7-0.4-1.6-0.6-2-1.2c-0.4-0.6-0.5-1.5-0.3-2.2
		c0.5-1.6,1.5-1.8,4.2-1c0.2-1.4-0.3-3.1,1.7-3.5c1.6-0.3,2.3,0.2,3,1.8c1.5,0.3,3,0.2,3.8,0.9c0.5,0.5-0.3,2.2-0.5,3.4
		c-0.2,0-0.3,0-0.5,0c0.3,0.1,0.7,0.2,1,0.4c0.9,0.5,2.1,1.1,1.6,2.2c-0.4,0.9-1.5,1.7-2.4,1.9c-0.9,0.2-1.5,0.3-2,1.2
		c-1.7,2.7-4,2.5-5.5-0.5L287.2,19.3L287.2,19.3L287.2,19.3z"/>
	<path class="st0" d="M298.9,83.7c0.4,1.2,1.3,2.5,0.1,3.4c-1.3,1-2.6,0.3-3.8-0.8c-0.3,1.7-1,3-2.9,2.8c-2-0.3-2-1.9-2-3.5
		c-1.6-0.1-3.1-0.4-3.5-2.2c-0.4-1.6,0.6-2.5,1.5-2.9c0.2-1.3,0.1-3,0.6-3.2c0.9-0.4,2.2,0,3.4,0.1c0.5-0.5,1.3-1.3,2.2-1.8
		c0.4-0.2,1.3,0,1.8,0.3c1.5,0.8,1.6,1.7,0.6,3.5c1.5,0.3,3.5-0.9,4.1,1.5C301.3,82.3,300.3,83.2,298.9,83.7L298.9,83.7L298.9,83.7z
		"/>
	<path class="st0" d="M298.5,57.4c-1.3-0.2-2.5-0.4-3.9-0.6c-0.2,1.3-1.1,2.4-2.9,2.2c-1.9-0.3-1.8-2-2-3.4
		c-1.6-0.2-3.1-0.5-3.5-2.4c-0.3-1.6,0.8-2.3,1.5-2.7c0.3-1.4,0.2-3,0.8-3.3c0.9-0.4,2.2,0.2,3.4,0.3c0.8-1.7,1.9-2.4,3.4-1.9
		c1.4,0.4,1.6,1.2,1.2,3.8c1.3,0.3,3.2-0.8,3.9,1.3c0.5,1.7-0.5,2.6-2,3.2C299.2,55,299.4,56.3,298.5,57.4L298.5,57.4L298.5,57.4
		L298.5,57.4z"/>
	<path class="st0" d="M282,53.7c2.6,0.3,3.8,1.1,3.6,2.5c-0.1,1.2-0.9,1.5-3.8,1.2c-0.1,0.7,0,1.5-0.3,2.2c-0.3,0.6-0.9,1.1-1.5,1.4
		c-0.2,0.1-0.9-0.7-1.1-1.2c-0.3-0.8-0.4-1.7-0.6-2.7c-1,0.5-2,0.9-2.9,1.4c-1.1,0.6-2.1,0.3-2.6-0.7c-0.2-0.5,0.1-1.6,0.6-2.2
		c0.5-0.7,1.4-1.1,2.1-1.6c-1.5-2.1-1.8-3.3-0.7-3.9c2-1,2.4,1.2,3.4,1.9c0.5-1,1-2,1.7-2.9c0.2-0.3,1.1-0.1,1.6,0.1
		C283.4,49.9,283.5,51.1,282,53.7L282,53.7L282,53.7z"/>
	<path class="st0" d="M276,84c-1.6-2.1-1.9-3.4-0.6-4c1.9-0.8,2.5,1,3.4,2.2c0.3-0.9,0.4-2.1,1-2.6c0.5-0.5,1.7-0.6,2.4-0.3
		c1.7,0.7,1.7,2,0.3,4.2c1.4,0.8,4.2,0.2,3.5,3c-0.5,1.9-2.3,0.8-3.6,0.8c-0.1,0.8-0.1,1.7-0.3,2.5c-0.2,0.5-0.8,1.1-1.3,1.1
		c-0.4,0-1.1-0.6-1.3-1.1c-0.4-0.9-0.4-1.8-0.6-2.8c-1,0.5-1.9,1.1-2.9,1.3c-0.7,0.2-2.1,0-2.2-0.3c-0.2-0.8-0.1-1.9,0.3-2.6
		C274.3,84.8,275.2,84.5,276,84L276,84L276,84z"/>
	<path class="st0" d="M301.3,35.7c0.9-1.1,0.4-4.4,3.4-2.7c1.8,1,1.8,1.1,0.1,4c1,0.4,2.1,0.8,3,1.3c0.3,0.2,0.4,0.9,0.4,1.3
		c0,1.2-0.5,1.3-3.7,1.3c-0.1,0.9-0.2,1.8-0.5,2.6c-0.1,0.4-0.7,0.8-1.1,0.9c-0.2,0.1-0.8-0.5-0.9-0.9c-0.4-1-0.7-2.1-1.1-3.2
		c-0.9,0.5-1.6,1-2.4,1.4c-1,0.4-2.1,0.8-2.8-0.4c-0.6-1,0-2.5,1.2-3.1c0.5-0.3,1.1-0.4,1.6-0.7c-0.2-1.3-3.1-2-1-3.8
		C299.8,31.9,299.9,35.2,301.3,35.7L301.3,35.7L301.3,35.7z"/>
	<path class="st0" d="M279.4,102.9c-0.9,0.1-2.2,2.4-3.4,0.3c-0.8-1.4,0.8-2.1,1.9-2.5c0.2-1-2.4-1.5-0.5-2.8
		c1.6-1.1,1.6,0.8,2.5,1.2c0.3-1.1,0.6-2.6,2.3-2c1.2,0.4,1.3,1.3,0.4,3.1c1,0.4,2.5,0.3,2.1,2c-0.1,0.5-1.3,0.8-2.2,1.3
		c-0.3,0.4-0.8,1.2-1.4,2C280.6,104.7,280.1,103.9,279.4,102.9L279.4,102.9L279.4,102.9z"/>
	<path class="st0" d="M262.4,112.6c-0.1-1.2-0.5-2.5-0.1-2.9c1.5-1.3,1.6,1.2,2.7,1.3c0.5-0.9,0.2-2.7,2-2.1c1.2,0.4,1.3,1.3,0.4,3
		c0.8,0.7,3,0.2,2.4,2.2c-0.2,0.5-1.5,0.7-2.4,1c-0.1-0.1-0.2-0.3-0.2-0.4c-0.1,0.5,0,1.1-0.2,1.6c-0.1,0.4-0.5,0.7-0.8,1.1
		c-0.3-0.3-0.8-0.6-0.9-1c-0.2-1.8-0.8-2-2.3-1.1c-0.4,0.3-1.2,0-1.9,0c0.2-0.7,0.2-1.5,0.5-2.2
		C261.9,112.8,262.4,112.6,262.4,112.6L262.4,112.6L262.4,112.6z"/>
</g>
</svg>
